<?xml version="1.0"?>
<svg xmlns="http://www.w3.org/2000/svg" height="512px" viewBox="-17 0 512 512" width="512px" class=""><g><path d="m477.867188 76.800781c-.027344-23.554687-19.113282-42.640625-42.667969-42.667969h-34.132813v-8.53125c0-14.140624-11.460937-25.601562-25.601562-25.601562-14.136719 0-25.597656 11.460938-25.597656 25.601562v8.53125h-85.332032v-8.53125c0-14.140624-11.464844-25.601562-25.601562-25.601562-14.140625 0-25.601563 11.460938-25.601563 25.601562v8.53125h-85.332031v-8.53125c0-14.140624-11.460938-25.601562-25.601562-25.601562-14.136719 0-25.597657 11.460938-25.597657 25.601562v8.53125h-34.132812c-23.554688.027344-42.6406252 19.113282-42.667969 42.667969v392.53125c.0273438 23.554688 19.113281 42.640625 42.667969 42.667969h392.53125c23.554687-.027344 42.640625-19.113281 42.667969-42.667969zm-76.800782 17.066407c0 14.136718-11.460937 25.597656-25.601562 25.597656-14.136719 0-25.597656-11.460938-25.597656-25.597656.054687-2.875.601562-5.714844 1.613281-8.40625 3.605469 10.152343 13.210937 16.9375 23.984375 16.9375 10.777344 0 20.382812-6.785157 23.988281-16.9375 1.011719 2.691406 1.558594 5.53125 1.613281 8.40625zm-34.132812-68.265626c0-4.714843 3.820312-8.535156 8.53125-8.535156 4.714844 0 8.535156 3.820313 8.535156 8.535156v51.199219c0 4.710938-3.820312 8.53125-8.535156 8.53125-4.710938 0-8.53125-3.820312-8.53125-8.53125zm-102.398438 68.265626c0 14.136718-11.464844 25.597656-25.601562 25.597656-14.140625 0-25.601563-11.460938-25.601563-25.597656.054688-2.875.601563-5.714844 1.613281-8.40625 3.605469 10.152343 13.214844 16.9375 23.988282 16.9375 10.773437 0 20.382812-6.785157 23.988281-16.9375 1.011719 2.691406 1.558594 5.53125 1.613281 8.40625zm-34.136718-68.265626c0-4.714843 3.820312-8.535156 8.535156-8.535156 4.710937 0 8.53125 3.820313 8.53125 8.535156v51.199219c0 4.710938-3.820313 8.53125-8.53125 8.53125-4.714844 0-8.535156-3.820312-8.535156-8.53125zm-102.398438 68.265626c0 14.136718-11.460938 25.597656-25.601562 25.597656-14.136719 0-25.597657-11.460938-25.597657-25.597656.054688-2.875.597657-5.714844 1.613281-8.40625 3.605469 10.152343 13.210938 16.9375 23.984376 16.9375 10.777343 0 20.382812-6.785157 23.988281-16.9375 1.011719 2.691406 1.558593 5.53125 1.613281 8.40625zm-34.132812-68.265626c0-4.714843 3.820312-8.535156 8.53125-8.535156 4.714843 0 8.535156 3.820313 8.535156 8.535156v51.199219c0 4.710938-3.820313 8.53125-8.535156 8.53125-4.710938 0-8.53125-3.820312-8.53125-8.53125zm-51.199219 25.597657h34.132812v8.601562c-14.691406 11.019531-20.683593 30.203125-14.878906 47.625 5.808594 17.425781 22.113281 29.175781 40.476563 29.175781 18.367187 0 34.671874-11.75 40.480468-29.175781 5.804688-17.421875-.1875-36.605469-14.878906-47.625v-8.601562h85.332031v8.601562c-14.691406 11.019531-20.683593 30.203125-14.875 47.625 5.808594 17.425781 22.109375 29.175781 40.476563 29.175781 18.363281 0 34.667968-11.75 40.476562-29.175781 5.808594-17.421875-.183594-36.605469-14.875-47.625v-8.601562h85.332032v8.601562c-14.691407 11.019531-20.683594 30.203125-14.878907 47.625 5.808594 17.425781 22.113281 29.175781 40.476563 29.175781 18.367187 0 34.671875-11.75 40.480468-29.175781 5.804688-17.421875-.1875-36.605469-14.878906-47.625v-8.601562h34.132813c14.140625 0 25.601562 11.460937 25.601562 25.601562v76.800781h-443.734375v-76.800781c0-14.140625 11.460938-25.601562 25.601563-25.601562zm392.53125 443.734375h-392.53125c-14.140625 0-25.601563-11.460938-25.601563-25.601563v-298.664062h443.734375v298.664062c0 14.140625-11.460937 25.601563-25.601562 25.601563zm0 0" data-original="#000000" class="active-path" data-old_color="#38FF00" fill="#203E18"/><path d="m51.199219 187.734375h-8.53125c-4.714844 0-8.535157 3.820313-8.535157 8.53125 0 4.714844 3.820313 8.535156 8.535157 8.535156h8.53125c4.714843 0 8.535156-3.820312 8.535156-8.535156 0-4.710937-3.820313-8.53125-8.535156-8.53125zm0 0" data-original="#000000" class="active-path" data-old_color="#38FF00" fill="#203E18"/><path d="m93.867188 187.734375h-8.535157c-4.710937 0-8.53125 3.820313-8.53125 8.53125 0 4.714844 3.820313 8.535156 8.53125 8.535156h8.535157c4.710937 0 8.53125-3.820312 8.53125-8.535156 0-4.710937-3.820313-8.53125-8.53125-8.53125zm0 0" data-original="#000000" class="active-path" data-old_color="#38FF00" fill="#203E18"/><path d="m128 204.800781h8.535156c4.710938 0 8.53125-3.820312 8.53125-8.535156 0-4.710937-3.820312-8.53125-8.53125-8.53125h-8.535156c-4.710938 0-8.535156 3.820313-8.535156 8.53125 0 4.714844 3.824218 8.535156 8.535156 8.535156zm0 0" data-original="#000000" class="active-path" data-old_color="#38FF00" fill="#203E18"/><path d="m170.667969 204.800781h8.53125c4.714843 0 8.535156-3.820312 8.535156-8.535156 0-4.710937-3.820313-8.53125-8.535156-8.53125h-8.53125c-4.714844 0-8.535157 3.820313-8.535157 8.53125 0 4.714844 3.820313 8.535156 8.535157 8.535156zm0 0" data-original="#000000" class="active-path" data-old_color="#38FF00" fill="#203E18"/><path d="m213.332031 204.800781h8.535157c4.710937 0 8.53125-3.820312 8.53125-8.535156 0-4.710937-3.820313-8.53125-8.53125-8.53125h-8.535157c-4.710937 0-8.53125 3.820313-8.53125 8.53125 0 4.714844 3.820313 8.535156 8.53125 8.535156zm0 0" data-original="#000000" class="active-path" data-old_color="#38FF00" fill="#203E18"/><path d="m256 204.800781h8.535156c4.710938 0 8.53125-3.820312 8.53125-8.535156 0-4.710937-3.820312-8.53125-8.53125-8.53125h-8.535156c-4.710938 0-8.535156 3.820313-8.535156 8.53125 0 4.714844 3.824218 8.535156 8.535156 8.535156zm0 0" data-original="#000000" class="active-path" data-old_color="#38FF00" fill="#203E18"/><path d="m298.667969 204.800781h8.53125c4.714843 0 8.535156-3.820312 8.535156-8.535156 0-4.710937-3.820313-8.53125-8.535156-8.53125h-8.53125c-4.714844 0-8.535157 3.820313-8.535157 8.53125 0 4.714844 3.820313 8.535156 8.535157 8.535156zm0 0" data-original="#000000" class="active-path" data-old_color="#38FF00" fill="#203E18"/><path d="m341.332031 204.800781h8.535157c4.710937 0 8.53125-3.820312 8.53125-8.535156 0-4.710937-3.820313-8.53125-8.53125-8.53125h-8.535157c-4.710937 0-8.53125 3.820313-8.53125 8.53125 0 4.714844 3.820313 8.535156 8.53125 8.535156zm0 0" data-original="#000000" class="active-path" data-old_color="#38FF00" fill="#203E18"/><path d="m392.535156 187.734375h-8.535156c-4.710938 0-8.535156 3.820313-8.535156 8.53125 0 4.714844 3.824218 8.535156 8.535156 8.535156h8.535156c4.710938 0 8.53125-3.820312 8.53125-8.535156 0-4.710937-3.820312-8.53125-8.53125-8.53125zm0 0" data-original="#000000" class="active-path" data-old_color="#38FF00" fill="#203E18"/><path d="m435.199219 187.734375h-8.53125c-4.714844 0-8.535157 3.820313-8.535157 8.53125 0 4.714844 3.820313 8.535156 8.535157 8.535156h8.53125c4.714843 0 8.535156-3.820312 8.535156-8.535156 0-4.710937-3.820313-8.53125-8.535156-8.53125zm0 0" data-original="#000000" class="active-path" data-old_color="#38FF00" fill="#203E18"/><path d="m307.199219 443.734375h-75.535157l130.328126-180.402344c8.308593-11.511719 5.9375-27.546875-5.34375-36.160156-11.285157-8.613281-27.378907-6.671875-36.289063 4.378906l-121.847656 150.015625-27.179688-27.082031c-5.964843-5.933594-14.414062-8.644531-22.71875-7.292969-8.300781 1.351563-15.453125 6.601563-19.230469 14.117188l-.707031 1.433594c-4.875 9.609374-3.300781 21.230468 3.957031 29.195312l46.796876 51.796875h-51.429688c-4.710938 0-8.535156 3.820313-8.535156 8.53125 0 4.714844 3.824218 8.535156 8.535156 8.535156h179.199219c4.714843 0 8.535156-3.820312 8.535156-8.535156 0-4.710937-3.820313-8.53125-8.535156-8.53125zm-163.265625-73.386719.714844-1.433594c1.304687-2.625 3.796874-4.453124 6.691406-4.90625.5-.082031 1.007812-.125 1.519531-.121093 2.410156 0 4.722656.960937 6.421875 2.671875l33.871094 33.757812c1.707031 1.707032 4.0625 2.609375 6.472656 2.484375 2.414062-.125 4.660156-1.265625 6.183594-3.140625l127.84375-157.3125c3.15625-3.625 8.585937-4.183594 12.410156-1.273437 3.828125 2.910156 4.746094 8.285156 2.097656 12.296875l-134.996094 186.820312c-1.507812 2.101563-3.886718 3.40625-6.472656 3.546875-2.582031.140625-5.089844-.894531-6.816406-2.820312l-54.613281-60.441407c-2.503907-2.773437-3.035157-6.804687-1.328125-10.128906zm0 0" data-original="#000000" class="active-path" data-old_color="#38FF00" fill="#203E18"/><path d="m358.398438 443.734375h-17.066407c-4.710937 0-8.53125 3.820313-8.53125 8.53125 0 4.714844 3.820313 8.535156 8.53125 8.535156h17.066407c4.714843 0 8.535156-3.820312 8.535156-8.535156 0-4.710937-3.820313-8.53125-8.535156-8.53125zm0 0" data-original="#000000" class="active-path" data-old_color="#38FF00" fill="#203E18"/></g> </svg>
