<svg viewBox="0 0 512 512" xmlns="http://www.w3.org/2000/svg" xmlns:xlink="http://www.w3.org/1999/xlink"><linearGradient id="a" gradientTransform="matrix(1 0 0 -1 0 -13734)" gradientUnits="userSpaceOnUse" x1="0" x2="512" y1="-13990" y2="-13990"><stop offset="0" stop-color="#00f38d"/><stop offset="1" stop-color="#009eff"/></linearGradient><path d="m512 256c0 141.386719-114.613281 256-256 256s-256-114.613281-256-256 114.613281-256 256-256 256 114.613281 256 256zm0 0" fill="url(#a)"/><g fill="#fff"><path d="m338.640625 240.09375c-23.917969 0-43.375 19.460938-43.375 43.375 0 23.917969 19.460937 43.375 43.375 43.375 23.917969 0 43.375-19.457031 43.375-43.375 0-23.914062-19.457031-43.375-43.375-43.375zm0 56.75c-7.375 0-13.375-6-13.375-13.375s6-13.375 13.375-13.375 13.375 6 13.375 13.375-6 13.375-13.375 13.375zm0 0"/><path d="m338.640625 183.394531c-54.425781 0-98.703125 44.253907-98.703125 98.65625v2.5625c0 27.332031 15.324219 58.773438 45.542969 93.449219 21.542969 24.714844 42.839843 42 43.738281 42.722656l9.421875 7.609375 9.421875-7.609375c.898438-.722656 22.195312-18.003906 43.738281-42.722656 30.21875-34.675781 45.542969-66.117188 45.542969-93.449219v-2.5625c0-54.402343-44.277344-98.65625-98.703125-98.65625zm68.703125 101.214844c0 35.699219-43.375 82.042969-68.703125 104.761719-25.332031-22.722656-68.703125-69.0625-68.703125-104.761719v-2.5625c0-37.855469 30.820312-68.65625 68.703125-68.65625s68.703125 30.800781 68.703125 68.65625zm0 0"/><path d="m137.644531 387.613281v-183.023437l117.277344-101.714844 73.875 64.273438 19.6875-22.632813-93.53125-81.378906-182.4375 158.226562 19.65625 22.664063 15.472656-13.417969v157.003906c0 22.449219 18.261719 40.710938 40.714844 40.710938h132.21875v-30h-132.222656c-5.90625 0-10.710938-4.804688-10.710938-10.710938zm0 0"/></g></svg>